<svg xmlns="http://www.w3.org/2000/svg" viewBox="-64 -68 128 152">
  <circle cx="0" cy="-48" r="13" fill="#6B4A2A" stroke="#2B1B17" stroke-width="3.5"/>
  <circle cx="-13" cy="-43" r="6" fill="#6B4A2A" stroke="#2B1B17" stroke-width="2.5"/>
  <circle cx="13" cy="-43" r="6" fill="#6B4A2A" stroke="#2B1B17" stroke-width="2.5"/>
  <circle cx="0" cy="6" r="44" fill="#EAC19A" stroke="#2B1B17" stroke-width="3.5"/>
  <path d="M -44 -2 A 44 44 0 0 1 44 -2 L 38 -16 Q 0 -30 -38 -16 Z" fill="#6B4A2A" stroke="#2B1B17" stroke-width="3"/>
  <ellipse cx="-44" cy="18" rx="4" ry="6" fill="none" stroke="#FFB627" stroke-width="3"/>
  <ellipse cx="44" cy="18" rx="4" ry="6" fill="none" stroke="#FFB627" stroke-width="3"/>
  <path d="M -26 -7 Q -16 -12 -7 -8" stroke="#2B1B17" stroke-width="2.5" fill="none" stroke-linecap="round"/>
  <path d="M 26 -7 Q 16 -12 7 -8" stroke="#2B1B17" stroke-width="2.5" fill="none" stroke-linecap="round"/>
  <circle cx="-16" cy="8" r="11" fill="none" stroke="#2B1B17" stroke-width="3"/>
  <circle cx="16" cy="8" r="11" fill="none" stroke="#2B1B17" stroke-width="3"/>
  <line x1="-5" y1="8" x2="5" y2="8" stroke="#2B1B17" stroke-width="3"/>
  <circle cx="-16" cy="8" r="3.3" fill="#2B1B17"/>
  <circle cx="16" cy="8" r="3.3" fill="#2B1B17"/>
  <path d="M -2 15 Q -5 20 2 20" stroke="#2B1B17" stroke-width="2" fill="none" stroke-linecap="round" opacity="0.45"/>
  <path d="M -7 28 Q 0 32 7 28" stroke="#2B1B17" stroke-width="3" fill="none" stroke-linecap="round"/>
</svg>
