<svg xmlns="http://www.w3.org/2000/svg" viewBox="-64 -68 128 152">
  <path d="M 0 -50 Q 52 -50 50 8 Q 50 44 38 58 Q 0 64 -38 58 Q -50 44 -50 8 Q -52 -50 0 -50 Z" fill="#FF8A6B" stroke="#2B1B17" stroke-width="3.5"/>
  <path d="M -40 6 Q -30 -2 -24 8" stroke="#2B1B17" stroke-width="2" fill="none" opacity="0.4"/>
  <circle cx="0" cy="8" r="37" fill="#E9B98C" stroke="#2B1B17" stroke-width="3.5"/>
  <circle cx="-30" cy="-14" r="3" fill="#FFB627" stroke="#2B1B17" stroke-width="1.5"/>
  <path d="M -22 -1 Q -14 -5 -6 -2" stroke="#2B1B17" stroke-width="2.2" fill="none" stroke-linecap="round"/>
  <path d="M 22 -1 Q 14 -5 6 -2" stroke="#2B1B17" stroke-width="2.2" fill="none" stroke-linecap="round"/>
  <circle cx="-14" cy="8" r="9.5" fill="none" stroke="#2B1B17" stroke-width="3"/>
  <circle cx="14" cy="8" r="9.5" fill="none" stroke="#2B1B17" stroke-width="3"/>
  <line x1="-4.5" y1="8" x2="4.5" y2="8" stroke="#2B1B17" stroke-width="3"/>
  <circle cx="-14" cy="8" r="3.2" fill="#2B1B17"/>
  <circle cx="14" cy="8" r="3.2" fill="#2B1B17"/>
  <path d="M -2 15 Q -4 19 1 19" stroke="#2B1B17" stroke-width="2" fill="none" stroke-linecap="round" opacity="0.4"/>
  <path d="M -7 24 Q 0 28 7 24" stroke="#2B1B17" stroke-width="2.8" fill="none" stroke-linecap="round"/>
</svg>
