<svg xmlns="http://www.w3.org/2000/svg" viewBox="-64 -68 128 152">
  <ellipse cx="42" cy="16" rx="10" ry="24" fill="#6B4A2A" stroke="#2B1B17" stroke-width="3"/>
  <circle cx="0" cy="4" r="44" fill="#F4CBA6" stroke="#2B1B17" stroke-width="3.5"/>
  <path d="M -42 -4 A 44 44 0 0 1 42 -4 L 36 -16 Q 0 -28 -36 -16 Z" fill="#6B4A2A" stroke="#2B1B17" stroke-width="3"/>
  <circle cx="-15" cy="8" r="4.2" fill="#2B1B17"/>
  <circle cx="15" cy="8" r="4.2" fill="#2B1B17"/>
  <circle cx="-26" cy="18" r="5" fill="#FF8A6B" opacity="0.5"/>
  <circle cx="26" cy="18" r="5" fill="#FF8A6B" opacity="0.5"/>
  <path d="M -8 22 Q 0 28 8 22" stroke="#2B1B17" stroke-width="3" fill="none" stroke-linecap="round"/>
  <path d="M -22 48 L -8 42 L 8 42 L 22 48 L 18 60 L -18 60 Z" fill="#8B5E34" stroke="#2B1B17" stroke-width="2.5" stroke-linejoin="round"/>
  <line x1="-8" y1="42" x2="-14" y2="34" stroke="#2B1B17" stroke-width="2.5"/>
  <line x1="8" y1="42" x2="14" y2="34" stroke="#2B1B17" stroke-width="2.5"/>
</svg>
