<svg xmlns="http://www.w3.org/2000/svg" viewBox="-64 -68 128 152">
  <path d="M -46 6 Q 0 -54 46 6" stroke="#2B1B17" stroke-width="6" fill="none"/>
  <circle cx="0" cy="6" r="44" fill="#EAC19A" stroke="#2B1B17" stroke-width="3.5"/>
  <path d="M -40 -4 A 44 44 0 0 1 40 -4 L 34 -16 Q 0 -28 -34 -16 Z" fill="#3A2A1E" stroke="#2B1B17" stroke-width="3"/>
  <path d="M -3 -24 Q 2 -42 11 -30 Q 5 -30 5 -22 Z" fill="#3A2A1E" stroke="#2B1B17" stroke-width="2.5"/>
  <rect x="-52" y="0" width="16" height="22" rx="7" fill="#FF5A3C" stroke="#2B1B17" stroke-width="3"/>
  <rect x="36" y="0" width="16" height="22" rx="7" fill="#FF5A3C" stroke="#2B1B17" stroke-width="3"/>
  <path d="M -24 -4 Q -16 -9 -8 -5" stroke="#2B1B17" stroke-width="2.8" fill="none" stroke-linecap="round"/>
  <path d="M 24 -4 Q 16 -9 8 -5" stroke="#2B1B17" stroke-width="2.8" fill="none" stroke-linecap="round"/>
  <circle cx="-15" cy="7" r="3.6" fill="#2B1B17"/>
  <circle cx="15" cy="7" r="3.6" fill="#2B1B17"/>
  <path d="M -11 24 Q 0 35 11 24 Q 0 28 -11 24 Z" fill="#7A2E2E" stroke="#2B1B17" stroke-width="2"/>
  <path d="M -8 25 Q 0 26.5 8 25 L 6.5 27.5 Q 0 28.5 -6.5 27.5 Z" fill="#FFFFFF"/>
</svg>
