<svg xmlns="http://www.w3.org/2000/svg" viewBox="-64 -68 128 152">
  <ellipse cx="0" cy="16" rx="46" ry="54" fill="#1F1410" stroke="#2B1B17" stroke-width="3.5"/>
  <circle cx="0" cy="6" r="41" fill="#D9A06B" stroke="#2B1B17" stroke-width="3.5"/>
  <path d="M -40 -2 Q -42 -44 0 -44 Q 42 -44 40 -2 Q 30 -16 4 -10 Q 0 -2 -4 -10 Q -30 -16 -40 -2 Z" fill="#1F1410" stroke="#2B1B17" stroke-width="3"/>
  <circle cx="-41" cy="22" r="2.6" fill="#FFB627" stroke="#2B1B17" stroke-width="1.5"/>
  <circle cx="41" cy="22" r="2.6" fill="#FFB627" stroke="#2B1B17" stroke-width="1.5"/>
  <path d="M -24 -2 Q -15 -7 -7 -3" stroke="#2B1B17" stroke-width="2" fill="none" stroke-linecap="round"/>
  <path d="M 24 -2 Q 15 -7 7 -3" stroke="#2B1B17" stroke-width="2" fill="none" stroke-linecap="round"/>
  <path d="M -21 4 Q -15 1 -9 4" stroke="#2B1B17" stroke-width="2.2" fill="none" stroke-linecap="round"/>
  <path d="M 21 4 Q 15 1 9 4" stroke="#2B1B17" stroke-width="2.2" fill="none" stroke-linecap="round"/>
  <ellipse cx="-15" cy="8.5" rx="3.4" ry="4" fill="#2B1B17"/>
  <ellipse cx="15" cy="8.5" rx="3.4" ry="4" fill="#2B1B17"/>
  <path d="M -2 14 Q -5 19 1 19" stroke="#2B1B17" stroke-width="2" fill="none" stroke-linecap="round" opacity="0.4"/>
  <path d="M -8 23 Q 0 28 8 23" stroke="#2B1B17" stroke-width="3" fill="none" stroke-linecap="round"/>
</svg>
