<svg xmlns="http://www.w3.org/2000/svg" viewBox="-64 -68 128 152">
  <circle cx="0" cy="6" r="44" fill="#8B5E34" stroke="#2B1B17" stroke-width="3.5"/>
  <path d="M -40 -6 A 44 44 0 0 1 40 -6 Q 0 -20 -40 -6 Z" fill="#2B1B17" opacity="0.28"/>
  <path d="M -24 -3 Q -15 -6 -7 -3" stroke="#2B1B17" stroke-width="3" fill="none" stroke-linecap="round"/>
  <path d="M 24 -3 Q 15 -6 7 -3" stroke="#2B1B17" stroke-width="3" fill="none" stroke-linecap="round"/>
  <rect x="-28" y="2" width="22" height="15" rx="6" fill="#1F1410" stroke="#2B1B17" stroke-width="2"/>
  <rect x="6" y="2" width="22" height="15" rx="6" fill="#1F1410" stroke="#2B1B17" stroke-width="2"/>
  <line x1="-6" y1="6" x2="6" y2="6" stroke="#1F1410" stroke-width="3"/>
  <line x1="28" y1="7" x2="42" y2="4" stroke="#1F1410" stroke-width="3"/>
  <circle cx="42" cy="16" r="3.5" fill="#FFB627" stroke="#2B1B17" stroke-width="1.5"/>
  <path d="M -2 22 Q -5 26 1 26" stroke="#2B1B17" stroke-width="2" fill="none" stroke-linecap="round" opacity="0.4"/>
  <path d="M -9 27 Q -1 29 9 26" stroke="#3A140E" stroke-width="3" fill="none" stroke-linecap="round"/>
</svg>
