<svg xmlns="http://www.w3.org/2000/svg" viewBox="-64 -68 128 152">
  <circle cx="0" cy="6" r="44" fill="#B07A47" stroke="#2B1B17" stroke-width="3.5"/>
  <path d="M -44 -4 Q -48 -48 0 -48 Q 48 -48 44 -4 Q 30 -20 0 -18 Q -30 -20 -44 -4 Z" fill="#FF5A3C" stroke="#2B1B17" stroke-width="3.5"/>
  <path d="M -30 -34 Q 0 -24 30 -34" stroke="#E63946" stroke-width="3" fill="none"/>
  <circle cx="0" cy="-40" r="3.5" fill="#FFB627" stroke="#2B1B17" stroke-width="1.5"/>
  <path d="M -32 12 Q -36 50 0 52 Q 36 50 32 12 Q 18 32 0 32 Q -18 32 -32 12 Z" fill="#2B1B17" stroke="#2B1B17" stroke-width="2.5"/>
  <circle cx="-15" cy="6" r="4.2" fill="#2B1B17"/>
  <circle cx="15" cy="6" r="4.2" fill="#2B1B17"/>
  <path d="M -7 18 Q 0 23 7 18" stroke="#2B1B17" stroke-width="2.6" fill="none" stroke-linecap="round"/>
</svg>
