<svg xmlns="http://www.w3.org/2000/svg" viewBox="-64 -68 128 152">
  <circle cx="0" cy="6" r="44" fill="#C8915C" stroke="#2B1B17" stroke-width="3.5"/>
  <path d="M -40 -2 Q -42 -46 0 -46 Q 42 -46 40 -2 L 34 -16 Q 0 -26 -34 -16 Z" fill="#2B1B17" stroke="#2B1B17" stroke-width="3"/>
  <path d="M -2 -22 Q -22 -14 -17 8 Q -9 -4 -2 -9 Z" fill="#2B1B17" stroke="#2B1B17" stroke-width="2.5" stroke-linejoin="round"/>
  <path d="M 2 -22 Q 22 -14 17 8 Q 9 -4 2 -9 Z" fill="#2B1B17" stroke="#2B1B17" stroke-width="2.5" stroke-linejoin="round"/>
  <circle cx="-41" cy="22" r="4" fill="#FFB627" stroke="#2B1B17" stroke-width="1.5"/>
  <path d="M -25 2 Q -17 -2 -9 1" stroke="#2B1B17" stroke-width="3" fill="none" stroke-linecap="round"/>
  <path d="M 25 2 Q 17 -2 9 1" stroke="#2B1B17" stroke-width="3" fill="none" stroke-linecap="round"/>
  <path d="M -22 7 Q -16 4 -10 7" stroke="#2B1B17" stroke-width="2.2" fill="none" stroke-linecap="round"/>
  <path d="M 22 7 Q 16 4 10 7" stroke="#2B1B17" stroke-width="2.2" fill="none" stroke-linecap="round"/>
  <ellipse cx="-16" cy="11.5" rx="3.4" ry="4" fill="#2B1B17"/>
  <ellipse cx="16" cy="11.5" rx="3.4" ry="4" fill="#2B1B17"/>
  <path d="M -2 17 Q -5 22 1 22" stroke="#2B1B17" stroke-width="2" fill="none" stroke-linecap="round" opacity="0.45"/>
  <path d="M -8 27 Q 0 31 8 27" stroke="#2B1B17" stroke-width="3" fill="none" stroke-linecap="round"/>
</svg>
