<svg xmlns="http://www.w3.org/2000/svg" viewBox="-64 -68 128 152">
  <ellipse cx="0" cy="6" rx="50" ry="52" fill="#1F1410" stroke="#2B1B17" stroke-width="3.5"/>
  <line x1="-46" y1="44" x2="-46" y2="60" stroke="#1F1410" stroke-width="7"/>
  <line x1="-30" y1="50" x2="-30" y2="66" stroke="#1F1410" stroke-width="7"/>
  <line x1="30" y1="50" x2="30" y2="66" stroke="#1F1410" stroke-width="7"/>
  <line x1="46" y1="44" x2="46" y2="60" stroke="#1F1410" stroke-width="7"/>
  <circle cx="-46" cy="62" r="4" fill="#FFB627"/>
  <circle cx="-30" cy="68" r="4" fill="#FF5A3C"/>
  <circle cx="30" cy="68" r="4" fill="#FFB627"/>
  <circle cx="46" cy="62" r="4" fill="#FF5A3C"/>
  <circle cx="0" cy="6" r="40" fill="#8B5E34" stroke="#2B1B17" stroke-width="3.5"/>
  <path d="M -38 -2 A 40 40 0 0 1 38 -2 L 32 -12 Q 0 -22 -32 -12 Z" fill="#1F1410"/>
  <circle cx="-15" cy="8" r="4.2" fill="#1F1410"/>
  <circle cx="15" cy="8" r="4.2" fill="#1F1410"/>
  <circle cx="-26" cy="18" r="5" fill="#FF8A6B" opacity="0.4"/>
  <circle cx="26" cy="18" r="5" fill="#FF8A6B" opacity="0.4"/>
  <path d="M -9 22 Q 0 30 9 22" stroke="#3A140E" stroke-width="3" fill="none" stroke-linecap="round"/>
</svg>
