<svg xmlns="http://www.w3.org/2000/svg" viewBox="-64 -68 128 152">
  <circle cx="0" cy="6" r="44" fill="#D9A06B" stroke="#2B1B17" stroke-width="3.5"/>
  <path d="M -42 -4 A 44 44 0 0 1 42 -4 L 36 -18 Q 0 -30 -38 -10 Z" fill="#2B1B17" stroke="#2B1B17" stroke-width="3"/>
  <path d="M -30 -16 Q 0 -26 24 -16" stroke="#5A3A22" stroke-width="2" fill="none" opacity="0.5"/>
  <path d="M -24 -3 Q -15 -7 -6 -4" stroke="#2B1B17" stroke-width="3" fill="none" stroke-linecap="round"/>
  <path d="M 24 -3 Q 15 -7 6 -4" stroke="#2B1B17" stroke-width="3" fill="none" stroke-linecap="round"/>
  <rect x="-28" y="1" width="21" height="15" rx="5" fill="none" stroke="#2B1B17" stroke-width="3"/>
  <rect x="7" y="1" width="21" height="15" rx="5" fill="none" stroke="#2B1B17" stroke-width="3"/>
  <line x1="-7" y1="7" x2="7" y2="7" stroke="#2B1B17" stroke-width="3"/>
  <ellipse cx="-17" cy="9" rx="3.2" ry="3.6" fill="#2B1B17"/>
  <ellipse cx="17" cy="9" rx="3.2" ry="3.6" fill="#2B1B17"/>
  <path d="M -2 18 Q -5 22 1 22" stroke="#2B1B17" stroke-width="2" fill="none" stroke-linecap="round" opacity="0.45"/>
  <path d="M -8 26 Q 0 30 8 26" stroke="#2B1B17" stroke-width="3" fill="none" stroke-linecap="round"/>
</svg>
