<svg xmlns="http://www.w3.org/2000/svg" viewBox="-64 -68 128 152">
  <circle cx="-30" cy="-40" r="11" fill="#3A2A1E" stroke="#2B1B17" stroke-width="3"/>
  <circle cx="30" cy="-40" r="11" fill="#3A2A1E" stroke="#2B1B17" stroke-width="3"/>
  <circle cx="0" cy="6" r="44" fill="#E9B98C" stroke="#2B1B17" stroke-width="3.5"/>
  <path d="M -42 -2 A 44 44 0 0 1 42 -2 L 36 -16 Q 0 -28 -36 -16 Z" fill="#3A2A1E" stroke="#2B1B17" stroke-width="3"/>
  <path d="M 8 -22 Q 18 -10 13 0" stroke="#FF6FA5" stroke-width="4" fill="none" stroke-linecap="round"/>
  <path d="M -42 -6 Q 0 -18 42 -6" stroke="#FF5A3C" stroke-width="5" fill="none"/>
  <path d="M -24 -3 Q -15 -8 -7 -4" stroke="#2B1B17" stroke-width="2.4" fill="none" stroke-linecap="round"/>
  <path d="M 24 -3 Q 15 -8 7 -4" stroke="#2B1B17" stroke-width="2.4" fill="none" stroke-linecap="round"/>
  <circle cx="-15" cy="8" r="3.8" fill="#2B1B17"/>
  <circle cx="15" cy="8" r="3.8" fill="#2B1B17"/>
  <path d="M -2 14 Q -5 18 1 18" stroke="#2B1B17" stroke-width="2" fill="none" stroke-linecap="round" opacity="0.4"/>
  <path d="M -11 23 Q 0 33 11 23" stroke="#2B1B17" stroke-width="3" fill="none" stroke-linecap="round"/>
</svg>
