<svg xmlns="http://www.w3.org/2000/svg" viewBox="-64 -68 128 152">
  <ellipse cx="0" cy="12" rx="50" ry="48" fill="#3A2A1E" stroke="#2B1B17" stroke-width="3.5"/>
  <circle cx="0" cy="4" r="40" fill="#EAC19A" stroke="#2B1B17" stroke-width="3.5"/>
  <path d="M -40 -4 A 40 40 0 0 1 40 -4 L 36 -18 Q 0 -28 -36 -10 Z" fill="#3A2A1E" stroke="#2B1B17" stroke-width="3"/>
  <path d="M -46 14 Q -40 26 -46 36" stroke="#2B1B17" stroke-width="2.5" fill="none" opacity="0.5"/>
  <path d="M 46 14 Q 40 26 46 36" stroke="#2B1B17" stroke-width="2.5" fill="none" opacity="0.5"/>
  <circle cx="-44" cy="20" r="3.5" fill="#FFB627" stroke="#2B1B17" stroke-width="1.5"/>
  <circle cx="44" cy="20" r="3.5" fill="#FFB627" stroke="#2B1B17" stroke-width="1.5"/>
  <path d="M -23 -5 Q -15 -9 -8 -6" stroke="#2B1B17" stroke-width="2.5" fill="none" stroke-linecap="round"/>
  <path d="M 23 -5 Q 15 -9 8 -6" stroke="#2B1B17" stroke-width="2.5" fill="none" stroke-linecap="round"/>
  <path d="M -21 0 Q -15 -3 -9 0" stroke="#2B1B17" stroke-width="2.2" fill="none" stroke-linecap="round"/>
  <path d="M 21 0 Q 15 -3 9 0" stroke="#2B1B17" stroke-width="2.2" fill="none" stroke-linecap="round"/>
  <ellipse cx="-15" cy="4.5" rx="3.4" ry="4" fill="#2B1B17"/>
  <ellipse cx="15" cy="4.5" rx="3.4" ry="4" fill="#2B1B17"/>
  <path d="M -2 9 Q -5 14 2 14" stroke="#2B1B17" stroke-width="2" fill="none" stroke-linecap="round" opacity="0.45"/>
  <path d="M -8 20 Q 0 25 8 20 Q 0 28 -8 20 Z" fill="#C0392B" stroke="#2B1B17" stroke-width="2"/>
</svg>
