<svg xmlns="http://www.w3.org/2000/svg" viewBox="-64 -68 128 152">
  <path d="M 30 -28 Q 56 -34 54 -6 Q 52 18 36 24 Q 44 4 36 -10 Q 30 -20 30 -28 Z" fill="#6B4A2A" stroke="#2B1B17" stroke-width="3" stroke-linejoin="round"/>
  <circle cx="33" cy="-22" r="4" fill="#FF5A3C" stroke="#2B1B17" stroke-width="1.5"/>
  <circle cx="0" cy="6" r="44" fill="#F2C29A" stroke="#2B1B17" stroke-width="3.5"/>
  <path d="M -42 -4 A 44 44 0 0 1 42 -4 L 36 -18 Q 0 -28 -36 -16 Z" fill="#6B4A2A" stroke="#2B1B17" stroke-width="3"/>
  <circle cx="-42" cy="16" r="3" fill="#FFB627" stroke="#2B1B17" stroke-width="1.5"/>
  <path d="M -24 -2 Q -15 -7 -7 -3" stroke="#2B1B17" stroke-width="2.2" fill="none" stroke-linecap="round"/>
  <path d="M 24 -2 Q 15 -7 7 -3" stroke="#2B1B17" stroke-width="2.2" fill="none" stroke-linecap="round"/>
  <path d="M -21 4 Q -15 1 -9 4" stroke="#2B1B17" stroke-width="2.2" fill="none" stroke-linecap="round"/>
  <path d="M 21 4 Q 15 1 9 4" stroke="#2B1B17" stroke-width="2.2" fill="none" stroke-linecap="round"/>
  <ellipse cx="-15" cy="8.5" rx="3.4" ry="4" fill="#2B1B17"/>
  <ellipse cx="15" cy="8.5" rx="3.4" ry="4" fill="#2B1B17"/>
  <path d="M -2 14 Q -5 19 1 19" stroke="#2B1B17" stroke-width="2" fill="none" stroke-linecap="round" opacity="0.4"/>
  <path d="M -9 23 Q 0 29 9 23" stroke="#2B1B17" stroke-width="3" fill="none" stroke-linecap="round"/>
  <path d="M -20 48 L -8 42 L 8 42 L 20 48 L 16 60 L -16 60 Z" fill="#8B5E34" stroke="#2B1B17" stroke-width="2.5" stroke-linejoin="round"/>
  <line x1="-8" y1="42" x2="-14" y2="34" stroke="#2B1B17" stroke-width="2.5"/>
  <line x1="8" y1="42" x2="14" y2="34" stroke="#2B1B17" stroke-width="2.5"/>
</svg>
